<?xml version="1.0" encoding="UTF-8" standalone="no"?>
<!DOCTYPE svg PUBLIC "-//W3C//DTD SVG 1.1//EN" "http://www.w3.org/Graphics/SVG/1.1/DTD/svg11.dtd">
<svg width="100%" height="100%" viewBox="0 0 1418 1418" version="1.1" xmlns="http://www.w3.org/2000/svg" xmlns:xlink="http://www.w3.org/1999/xlink" xml:space="preserve" xmlns:serif="http://www.serif.com/" style="fill-rule:evenodd;clip-rule:evenodd;stroke-linecap:round;stroke-linejoin:round;stroke-miterlimit:1.5;">
    <path d="M708.661,109.431L857.4,567.202L1338.73,567.202L949.326,850.12L1098.07,1307.89L708.661,1024.97L319.258,1307.89L467.997,850.12L78.594,567.202L559.923,567.202L708.661,109.431Z" style="fill:#ff4500;stroke:#000;stroke-width:12.5px;"/>
    <g>
        <path d="M1080.21,710.508L1079.12,710.233C1075.82,709.546 1072.53,708.722 1069.5,708.997C1064.15,709.272 1060.85,713.391 1057.15,717.785C1056.6,718.609 1055.91,719.296 1055.22,719.983L1054.54,720.669C1048.91,726.986 1041.08,736.186 1034.08,746.073C1027.07,755.96 1020.62,766.396 1017.74,775.459C1010.6,797.705 991.919,835.879 981.895,856.477C979.149,862.245 976.952,866.776 975.99,868.836L975.304,870.484C974.48,872.544 973.244,875.29 971.733,878.448L971.047,879.959C958.688,905.363 943.995,921.429 927.38,928.02C925.732,928.707 924.084,928.981 922.299,928.981L909.528,928.707C909.116,928.707 908.842,928.981 908.842,929.393C908.704,931.316 908.704,933.238 908.567,935.161C908.155,945.734 907.743,955.759 901.838,965.646C895.247,976.906 894.972,990.638 894.835,1003.82C894.835,1005.19 894.835,1006.7 894.698,1008.08C894.698,1009.31 894.56,1010.69 894.56,1011.92C894.148,1022.63 893.737,1035.95 898.817,1044.88C903.349,1053.12 905.958,1056.96 907.468,1058.61L907.743,1058.61L908.979,1058.75L909.94,1059.57C910.077,1059.71 924.908,1073.99 929.989,1077.7L930.126,1077.84C931.224,1078.8 932.323,1080.44 931.774,1082.5C931.224,1084.43 929.439,1085.66 926.556,1086.07C925.045,1086.21 919.14,1086.35 912,1086.35C900.19,1086.35 884.811,1086.21 880.417,1086.07L879.043,1086.07L878.082,1084.97C877.67,1084.56 874.512,1081.27 872.589,1077.29L872.177,1077.42C871.491,1077.56 870.804,1077.56 870.118,1077.56C862.291,1077.56 852.266,1070.97 848.971,1068.5L846.362,1068.22L846.774,1064.93C846.636,1058.88 844.714,1052.43 843.066,1051.88L840.182,1050.92L840.457,1049.13C840.182,1048.72 839.908,1048.45 839.633,1047.9C837.161,1042.82 840.732,1032.93 841.555,1030.6C852.816,991.05 839.221,899.87 837.024,885.863C820.958,883.117 809.698,881.744 806.265,882.293C804.067,882.705 800.36,882.98 795.691,883.254C782.096,884.216 759.302,886.001 745.57,891.905C730.739,898.359 711.377,897.81 694.213,897.398C689.544,897.261 685.012,897.124 680.893,897.124C654.802,897.261 631.183,896.712 606.466,886.825C598.364,883.666 590.4,879.684 582.71,875.977C580.238,874.741 577.766,873.505 575.295,872.406C573.921,871.72 572.548,871.17 571.175,870.484C564.858,867.6 557.718,864.442 552.912,859.361C548.655,854.967 542.201,851.122 534.648,848.513C534.511,859.498 531.49,871.033 525.173,871.033C518.582,871.033 515.698,859.086 515.698,847.826L515.698,845.08L515.424,845.08C515.149,855.791 512.128,866.639 505.949,866.639C499.495,866.639 496.474,854.967 496.474,843.981C493.727,845.492 488.235,857.301 484.39,870.209C484.39,870.346 484.252,870.484 484.252,870.621C482.33,874.878 464.89,912.229 459.535,919.918C456.651,924.038 447.176,939.006 446.902,957.544C446.627,977.867 457.063,1030.6 459.26,1035.82C459.672,1036.23 460.222,1036.91 460.908,1037.6C463.38,1040.21 467.362,1044.74 471.344,1047.9C475.601,1051.33 476.975,1056.41 477.524,1059.57L477.936,1059.98C482.467,1065.61 490.844,1075.36 493.865,1077.29C495.375,1078.25 496.062,1080.03 495.513,1081.68C494.826,1084.01 494.277,1085.53 470.109,1085.53C462.007,1085.53 451.021,1085.39 436.603,1084.97C434.818,1084.97 433.17,1084.15 432.071,1082.92C430.835,1081.54 429.737,1080.31 428.776,1079.21C427.677,1079.35 426.304,1079.48 424.793,1079.48C416.966,1079.48 403.646,1077.42 396.643,1075.23C392.386,1073.85 389.091,1070.97 387.305,1066.71C385.52,1062.59 385.52,1057.37 387.031,1054.22C387.717,1052.84 387.305,1049.13 386.756,1047.08L385.52,1042.54L386.344,1042.54C383.873,1036.78 382.499,1033.34 382.362,1032.66C382.225,1031.97 382.087,1024.14 381.126,938.731L381.126,935.298C380.44,945.597 379.616,955.896 378.517,966.195C377.419,975.944 375.908,986.243 370.827,995.169C369.729,996.954 368.356,999.151 365.746,1000.11C362.039,1001.49 358.194,999.289 356.271,996.405C354.624,993.796 354.212,990.912 353.937,988.166C353.113,978.965 352.976,969.765 352.976,960.702C352.701,933.513 352.427,905.363 353.8,877.624C354.624,862.382 355.722,848.513 357.507,835.468C358.331,829.425 359.842,823.658 361.352,818.165C362.863,812.81 364.236,807.729 364.923,802.511C366.158,793.448 367.257,778.48 365.472,758.432C362.451,725.75 370.827,658.738 371.514,652.971C371.102,651.735 370.965,650.499 370.965,649.126C370.965,647.89 371.102,646.38 371.377,644.869C372.063,641.436 372.887,637.866 373.574,634.433C375.359,625.919 377.556,617.818 382.637,611.364C383.186,610.677 383.873,609.853 384.422,609.166C387.855,604.223 391.974,599.966 396.78,596.396C400.213,593.924 403.646,592.002 407.217,590.354C410.65,588.569 414.907,587.058 420.125,585.96C422.459,585.41 424.931,585.273 427.265,585.273C432.758,584.724 437.564,584.998 440.997,585.41L441.134,585.41C442.096,585.136 442.92,585.41 443.606,585.822C444.155,585.96 444.705,586.097 445.117,586.097C454.454,588.569 547.968,600.515 566.781,602.85C568.978,603.124 571.038,603.262 573.235,603.262L633.792,604.36C635.303,604.36 700.529,604.223 740.214,606.008C742.549,606.145 745.02,606.145 747.767,606.145C789.786,606.145 874.1,595.023 875.061,594.885L880.554,594.199L880.142,594.748C884.948,594.885 890.441,595.709 891.127,595.847C909.803,597.494 934.657,600.927 934.795,600.927C961.984,603.124 975.166,594.473 979.698,590.766C980.522,590.079 980.934,588.981 980.797,588.019C980.247,585.136 980.659,581.84 981.62,578.132C982.994,573.189 987.388,569.756 992.469,569.481L1012.24,568.383C1014.85,568.245 1017.46,568.795 1019.66,569.893C1035.31,577.858 1045.34,570.717 1049.04,567.284C1049.46,566.872 1049.73,566.186 1049.73,565.499C1048.91,551.218 1049.73,549.158 1050.01,548.472C1051.1,545.863 1057.83,542.292 1063.19,539.821L1063.33,539.821L1064.84,539.134C1069.23,537.211 1074.31,537.898 1078.02,540.919C1079.25,541.88 1080.63,542.979 1082.14,544.215C1096.14,555.612 1120.45,575.935 1125.81,582.801C1131.16,589.53 1146.27,606.145 1154.78,615.483C1157.53,618.367 1159.59,620.839 1161.51,623.31C1169.61,633.746 1188.7,649.401 1193.37,652.696C1197.35,655.443 1211.63,669.175 1211.77,675.079C1211.77,681.259 1190.76,702.543 1186.5,705.152C1180.18,708.997 1166.73,705.289 1162.74,704.054C1161.51,703.642 1159.59,703.504 1157.11,703.642C1154.37,703.779 1151.62,704.603 1149.15,706.251C1129.65,718.884 1103.42,715.588 1080.21,710.508ZM402.273,767.769C401.724,765.572 401.037,763.238 400.488,761.041C398.978,753.626 398.84,746.21 398.84,738.933C395.407,709.958 391.288,678.65 388.267,656.404C385.658,671.646 382.225,719.433 380.851,743.327C380.714,765.16 381.263,787.406 381.675,809.102C382.087,829.151 382.499,849.611 382.499,870.072C384.559,865.266 387.168,861.695 388.816,859.773C389.091,859.361 389.365,859.086 389.503,858.812C390.876,856.889 404.333,829.975 405.981,815.556C406.667,810.476 405.02,791.8 402.273,767.769Z" style="fill:#fff;fill-rule:nonzero;"/>
        <path d="M353.525,877.624C354.349,862.382 355.448,848.513 357.233,835.468C358.057,829.425 359.567,823.658 361.215,818.165C362.725,812.81 364.099,807.729 364.785,802.511C366.021,793.448 367.12,778.48 365.334,758.432C362.313,725.75 370.69,658.738 371.377,652.971C370.965,651.735 370.827,650.499 370.827,649.126C370.827,647.89 370.965,646.38 371.239,644.869C371.926,641.436 372.612,637.866 373.436,634.433C375.221,625.919 377.419,617.818 382.499,611.364C383.049,610.677 383.735,609.853 384.284,609.166C387.717,604.223 391.837,599.966 396.643,596.396C400.076,593.924 403.509,592.002 407.079,590.354C410.512,588.569 414.769,587.058 419.987,585.96C422.322,585.41 424.793,585.273 427.128,585.273C432.621,584.724 437.427,584.998 440.86,585.41L440.997,585.41C441.958,585.136 442.782,585.41 443.469,585.822C444.018,585.96 444.567,586.097 444.979,586.097C454.317,588.569 547.831,600.515 566.506,602.85C568.703,603.124 570.763,603.262 572.96,603.262L633.518,604.36C635.028,604.36 700.255,604.223 739.94,606.008C742.274,606.145 744.746,606.145 747.492,606.145C789.512,606.145 873.825,595.023 874.787,594.885L880.279,594.199L879.867,594.748C884.673,594.885 890.166,595.709 890.853,595.847C909.528,597.494 934.383,600.927 934.52,600.927C961.709,603.124 974.892,594.473 979.423,590.766C980.247,590.079 980.659,588.981 980.522,588.019C979.973,585.136 980.385,581.84 981.346,578.132C982.719,573.189 987.113,569.756 992.194,569.481L1011.97,568.383C1014.58,568.245 1017.19,568.795 1019.38,569.893C1035.04,577.858 1045.06,570.717 1048.63,567.284C1049.18,566.872 1049.32,566.186 1049.32,565.499C1048.5,551.218 1049.32,549.158 1049.59,548.472C1050.69,545.863 1057.42,542.292 1062.78,539.821L1062.91,539.821L1064.42,539.134C1068.82,537.211 1073.9,537.898 1077.61,540.919C1078.84,541.88 1080.21,542.979 1081.73,544.215C1095.73,555.612 1119.9,575.935 1125.39,582.801C1130.75,589.53 1145.85,606.145 1154.37,615.483C1157.11,618.367 1159.17,620.839 1161.1,623.31C1169.2,633.746 1188.29,649.401 1192.95,652.696C1196.8,655.443 1211.22,669.175 1211.35,675.079C1211.35,681.259 1190.35,702.543 1186.09,705.152C1179.77,708.997 1166.31,705.289 1162.33,704.054C1161.1,703.642 1159.17,703.504 1156.84,703.642C1154.09,703.779 1151.35,704.603 1148.87,706.251C1129.51,719.296 1103.15,716 1080.08,710.92L1078.98,710.645C1075.68,709.958 1072.39,709.134 1069.37,709.409C1064.01,709.684 1060.72,713.803 1057.01,718.197C1056.32,719.021 1055.77,719.708 1055.09,720.395L1054.4,721.081C1048.77,727.398 1040.94,736.598 1033.94,746.485C1026.8,756.372 1020.48,766.808 1017.6,775.871C1010.46,798.117 991.782,836.291 981.758,856.889C979.011,862.657 976.814,867.188 975.853,869.248L975.166,870.896C974.343,872.955 973.107,875.702 971.596,878.86L970.91,880.371C958.551,905.775 943.858,921.841 927.242,928.432C925.594,929.119 923.947,929.393 922.161,929.393L909.391,929.119C908.979,929.119 908.704,929.393 908.704,929.805C908.567,931.728 908.567,933.65 908.43,935.573C908.018,946.146 907.606,956.171 901.701,966.058C895.11,977.318 894.835,991.05 894.698,1004.23C894.698,1005.61 894.698,1007.12 894.56,1008.49C894.56,1009.73 894.56,1011.1 894.423,1012.33C894.011,1023.05 893.599,1036.37 898.68,1045.29C903.211,1053.53 905.821,1057.37 907.331,1059.02L907.606,1059.02L908.842,1059.16L909.803,1059.98C909.94,1060.12 924.771,1074.4 929.851,1078.11L929.989,1078.25C931.087,1079.21 932.186,1080.86 931.636,1082.92C931.087,1084.84 929.302,1086.07 926.418,1086.49C925.045,1086.62 919.003,1086.76 911.863,1086.76C900.053,1086.76 884.673,1086.62 880.279,1086.49L878.906,1086.49L877.945,1085.39C877.533,1084.97 874.375,1081.68 872.452,1077.7L872.04,1077.84C871.354,1077.97 870.667,1077.97 869.98,1077.97C862.153,1077.97 852.129,1071.38 848.833,1068.91L846.224,1068.63L846.636,1065.34C846.499,1059.3 844.576,1052.84 842.929,1052.29L840.045,1051.33L840.32,1049.55C840.045,1049.13 839.77,1048.86 839.496,1048.31C837.024,1043.23 840.594,1033.34 841.418,1031.01C852.678,991.461 839.084,900.282 836.887,886.275C820.82,883.529 809.56,882.156 806.127,882.705C803.93,883.117 800.223,883.392 795.554,883.666C781.959,884.628 759.164,886.413 745.432,892.317C730.602,898.771 711.24,898.222 694.075,897.81C689.406,897.673 684.875,897.536 680.755,897.536C654.665,897.673 631.046,897.124 606.329,887.237C598.227,884.078 590.262,880.096 582.573,876.388C580.101,875.153 577.629,873.917 575.157,872.818C573.784,872.132 572.411,871.582 571.038,870.896C564.721,868.012 557.581,864.854 552.774,859.773C548.518,855.379 542.064,851.534 534.511,848.925C534.374,859.91 531.353,871.445 524.899,871.445C518.307,871.445 515.424,859.498 515.424,848.238L515.424,845.492L515.149,845.492C514.874,856.203 511.853,867.051 505.674,867.051C499.22,867.051 496.199,855.379 496.062,844.393C493.315,845.904 487.823,857.713 483.978,870.621C483.978,870.758 483.84,870.896 483.84,871.033C481.918,875.29 464.479,912.641 459.123,920.33C456.239,924.45 446.764,939.418 446.49,957.956C446.215,978.279 456.651,1031.01 458.848,1036.23C459.26,1036.64 459.81,1037.33 460.496,1038.01C462.968,1040.62 466.95,1045.15 470.933,1048.31C475.189,1051.74 476.563,1056.83 477.112,1059.98L477.524,1060.39C482.055,1066.03 490.432,1075.78 493.453,1077.7C494.963,1078.66 495.65,1080.44 495.101,1082.09C494.414,1084.43 493.865,1085.94 469.697,1085.94C461.595,1085.94 450.609,1085.8 436.191,1085.39C434.406,1085.39 432.758,1084.56 431.659,1083.33C430.424,1081.95 429.325,1080.72 428.364,1079.62C427.265,1079.76 425.892,1079.89 424.381,1079.89C416.554,1079.89 403.234,1077.84 396.231,1075.64C391.974,1074.27 388.679,1071.38 386.894,1067.12C385.108,1063 385.108,1057.79 386.619,1054.63C387.305,1053.26 386.894,1049.55 386.344,1047.49L385.108,1042.96L385.932,1042.96C383.461,1037.19 382.087,1033.76 381.95,1033.07C381.813,1032.38 381.675,1024.56 380.714,939.143L380.714,935.71C380.028,946.009 379.204,956.308 378.105,966.607C377.007,976.356 375.496,986.655 370.415,995.581C369.317,997.366 367.944,999.563 365.334,1000.52C361.627,1001.9 357.782,999.701 355.86,996.817C354.212,994.208 353.8,991.324 353.525,988.578C352.701,979.377 352.564,970.177 352.564,961.114C352.427,933.513 352.152,905.363 353.525,877.624ZM1078.7,547.922C1077.19,546.686 1075.82,545.588 1074.59,544.627C1072.94,543.391 1071.02,542.704 1068.95,542.979C1069.37,543.391 1069.92,543.94 1070.33,544.764C1070.47,545.039 1070.6,545.313 1070.74,545.588C1071.15,546.824 1070.88,547.922 1070.74,548.746L1069.5,554.788C1068.95,557.26 1068.54,559.594 1069.37,561.242C1069.64,561.792 1069.92,562.203 1070.19,562.341C1070.47,562.478 1070.88,562.478 1071.43,562.478L1072.11,562.478C1076.1,562.753 1079.39,564.813 1082.69,566.735C1084.06,567.559 1085.3,568.383 1086.53,568.932C1088.73,570.031 1091.2,570.717 1093.67,571.404C1094.91,571.678 1096.14,572.09 1097.38,572.365C1098.48,572.64 1099.58,572.914 1100.81,573.189C1101.09,573.326 1101.5,573.326 1101.77,573.464C1103.01,573.738 1104.11,574.15 1105.34,574.425C1105.62,574.562 1105.76,574.562 1106.03,574.699C1107.13,575.111 1108.23,575.386 1109.46,575.798C1109.6,575.798 1109.74,575.935 1109.88,575.935C1110.98,576.347 1112.21,576.897 1113.31,577.309C1113.45,577.309 1113.58,577.446 1113.72,577.446C1105.89,570.58 1093.95,560.281 1078.7,547.922ZM1069.23,703.779L1070.47,703.779C1073.9,703.779 1077.06,704.466 1080.35,705.152L1081.45,705.427C1103.56,710.233 1128.41,713.529 1146.27,701.582C1149.42,699.385 1153.13,698.149 1156.98,698.012C1160,697.874 1162.47,698.149 1164.25,698.698C1171.53,700.895 1180.6,702.268 1183.75,700.346C1188.56,697.462 1205.86,678.512 1206.55,674.942C1206.27,672.196 1195.56,660.386 1190.35,656.679C1185.4,653.108 1166.04,637.179 1157.39,626.194C1155.6,623.86 1153.54,621.525 1150.93,618.641C1145.17,612.325 1136.24,602.712 1129.51,594.885C1130.06,596.258 1130.61,597.632 1131.16,599.005L1134.87,609.578C1135.69,611.913 1136.52,614.247 1137.61,616.307C1139.95,620.701 1143.52,624.271 1147.23,627.979C1148.19,628.94 1149.01,629.764 1149.97,630.725C1152.99,633.884 1155.88,637.179 1158.62,640.475L1173.32,657.64C1174.69,659.288 1176.75,661.622 1176.75,664.918C1176.75,666.978 1175.79,668.9 1174.96,670.136L1170.16,678.924C1168.65,681.808 1167,684.829 1164.67,687.438C1163.16,689.223 1161.23,690.322 1159.45,691.283C1158.35,691.97 1157.25,692.519 1156.43,693.205C1152.31,696.638 1147.78,700.483 1142.01,701.719C1139.26,702.406 1136.38,702.406 1133.77,702.406L1124.84,702.406C1122.92,702.406 1120.72,702.406 1118.53,701.994C1116.74,701.582 1115.23,700.895 1113.58,700.209C1112.49,699.797 1111.39,699.247 1110.29,698.973C1107.68,698.286 1104.93,698.286 1101.91,698.286L1099.03,698.286C1090.65,698.012 1082.41,695.952 1074.59,693.892C1072.25,693.205 1069.92,692.656 1067.58,692.107C1065.93,691.695 1064.56,691.42 1063.33,691.558C1061.95,691.832 1060.58,692.656 1058.79,694.167C1058.11,694.853 1057.42,695.403 1057.01,696.226C1056.73,696.913 1056.6,697.874 1056.6,698.835L1055.77,711.469C1059.2,707.487 1063.33,704.054 1069.23,703.779ZM846.499,1032.38C846.499,1032.52 846.499,1032.52 846.362,1032.66C844.988,1036.23 843.341,1042.41 844.027,1045.15L866.822,1045.15C865.312,1036.64 864.076,1026.75 864.35,1018.1C865.037,999.975 862.565,955.896 862.291,952.875C861.741,950.129 854.051,908.933 853.365,893.141C853.228,890.807 851.58,889.022 849.383,888.61C846.911,888.198 844.576,887.786 842.379,887.374C845.4,906.187 857.896,992.835 846.499,1032.38ZM425.892,1045.29C428.776,1047.76 433.856,1052.71 434.543,1057.24C440.448,1058.34 451.433,1059.57 471.756,1059.02C471.207,1056.83 470.109,1054.22 467.774,1052.29C463.517,1048.86 459.26,1044.19 456.789,1041.44C456.102,1040.62 455.416,1039.93 455.004,1039.52C451.708,1036.23 440.997,976.356 441.409,957.681C441.684,938.045 451.021,922.802 455.141,916.897C459.26,911.13 472.168,883.941 479.172,868.699C481.781,860.048 488.647,839.999 495.787,838.9L495.924,838.9C497.298,838.763 498.671,839.175 499.769,839.999C500.868,840.96 501.417,842.333 501.417,843.707C501.417,855.241 504.576,861.283 505.674,861.695C506.91,861.283 510.068,855.241 510.068,843.707L510.068,842.608C510.068,841.921 510.343,841.098 510.892,840.548C511.441,839.999 512.128,839.724 512.952,839.862C514.051,839.999 515.286,839.999 516.522,840.136C519.131,840.274 521.054,842.471 520.916,845.08C520.916,846.041 520.779,847.14 520.779,848.101C520.779,859.636 523.937,865.678 525.036,866.09C526.272,865.678 529.43,859.636 529.43,847.964C529.43,846.453 530.117,845.08 531.353,844.119C532.589,843.295 534.099,843.02 535.472,843.432C544.123,846.316 551.676,850.71 556.619,855.928C560.739,860.185 567.33,863.206 573.235,865.815C574.745,866.502 576.119,867.188 577.492,867.737C579.963,868.973 582.435,870.072 584.907,871.308C592.597,875.015 600.424,878.86 608.251,882.019C632.007,891.494 655.214,892.18 680.755,891.905C685.012,891.905 689.544,892.043 694.35,892.18C710.828,892.592 729.641,893.141 743.373,887.099C757.791,880.783 781.135,878.998 795.142,878.036C799.673,877.624 803.244,877.487 805.303,877.075C810.384,876.251 824.528,878.311 838.672,880.783C839.908,881.057 841.281,881.195 842.517,881.469C843.753,881.744 845.126,881.881 846.362,882.156C847.735,882.43 849.108,882.705 850.481,882.98C855.15,883.804 858.583,887.786 858.72,892.455C859.407,908.384 867.509,951.227 867.646,951.776L867.646,952.051C867.646,952.6 867.921,956.994 868.195,963.448C868.882,978.554 870.118,1004.92 869.568,1017.96C869.431,1022.36 869.706,1027.16 870.255,1031.97C870.804,1036.5 871.491,1040.9 872.177,1045.02L873.139,1045.02L873.551,1048.04L873.825,1053.67C874.375,1056 874.787,1057.92 875.199,1059.43C880.279,1059.16 892.638,1058.61 900.74,1058.47C898.955,1055.73 896.62,1052.02 894.148,1047.35C888.518,1037.05 888.93,1023.05 889.342,1011.65C889.342,1010.27 889.48,1009.04 889.48,1007.8C889.48,1006.43 889.48,1005.06 889.617,1003.55C889.892,989.539 890.166,975.121 897.444,962.762C902.525,953.973 902.937,944.636 903.349,934.612C903.486,932.689 903.486,930.767 903.623,928.844C903.761,925.686 906.507,923.214 909.665,923.214L922.436,923.489C923.535,923.489 924.496,923.351 925.457,922.939C940.425,917.035 954.019,902.204 965.554,878.86C961.572,877.075 958.688,872.544 957.727,867.737C957.59,866.776 957.452,865.952 957.315,864.991C957.178,862.657 957.315,860.322 957.452,857.988C957.727,854.829 957.864,851.946 957.315,849.062C956.216,848.375 954.981,848.101 953.47,848.238C950.449,848.513 947.016,850.71 944.956,853.594C944.407,854.417 943.858,855.379 943.446,856.203C942.485,857.988 941.661,859.773 940.974,861.695C939.601,864.854 938.228,868.149 936.031,871.17C931.774,877.075 924.771,881.332 914.746,884.216C911.725,885.04 908.155,885.863 904.447,885.863C902.525,885.863 900.465,885.589 898.405,885.04C892.913,883.392 887.42,878.311 887.557,871.72C887.557,871.17 887.557,870.621 887.694,870.072C887.694,869.385 887.832,868.699 887.694,868.149C887.42,866.639 885.497,865.54 883.575,864.442C882.888,864.03 882.202,863.618 881.652,863.206C875.473,859.086 872.727,852.358 870.118,845.766C868.882,842.883 867.783,839.724 866.273,837.115C865.037,835.056 863.664,832.996 862.153,830.799C857.896,824.757 853.502,818.577 854.738,810.887C855.287,807.455 856.798,804.571 858.446,801.824L858.858,801.138C860.505,797.98 862.153,794.821 863.526,791.663C872.315,772.164 876.434,750.742 875.473,729.32L875.473,728.771C875.336,726.025 875.199,722.866 876.16,719.983C877.121,717.236 878.769,714.902 880.417,712.842L880.554,712.567C888.93,701.582 896.346,689.91 902.662,677.688C902.662,677.688 902.662,677.551 902.8,677.551C903.898,675.491 904.722,673.569 904.585,671.921C904.447,670.273 903.349,668.763 902.113,666.978C900.877,665.33 899.641,663.27 898.955,661.073C898.405,658.876 898.68,656.679 898.817,654.894C898.955,654.07 899.092,653.246 899.092,652.422C899.092,651.461 899.092,650.499 898.955,649.813C898.68,648.989 898.131,648.165 897.444,647.341L897.169,646.929C892.638,640.75 889.342,633.197 886.871,623.31C886.184,620.839 885.635,618.092 885.085,615.071C883.987,609.853 883.438,604.36 886.047,599.829C883.026,599.554 879.455,599.142 876.846,599.28C876.709,599.554 876.572,599.691 876.434,599.966C871.628,607.244 864.076,615.071 857.072,617.406C855.562,617.818 854.189,618.229 852.678,618.641C848.971,619.603 845.538,620.427 843.203,622.761C841.281,624.546 840.182,627.155 839.358,629.627C829.609,656.816 838.26,686.477 846.499,715.176C849.245,724.377 852.541,735.912 850.344,747.172C848.696,755.548 844.027,763.65 836.887,770.378C834.14,772.988 830.982,775.459 827.412,777.656C816.563,784.522 837.444,820.394 825.635,823.827L790.619,834.126C787.186,835.087 783.204,836.323 780.457,838.658C778.397,840.305 781.854,824.461 782.404,827.07C786.249,828.443 785.95,846.347 788.971,843.738C790.207,842.777 791.305,841.404 792.404,840.031C794.326,837.834 796.249,835.499 799.133,833.989C802.154,832.478 805.724,832.341 809.294,833.44C813.414,834.813 816.984,837.971 818.906,841.816C821.79,847.721 788.276,822.834 785.117,830.524C783.47,834.506 781.135,838.214 778.938,841.784C777.702,843.707 776.466,845.766 775.505,847.689C774.544,849.474 773.583,851.396 772.621,853.182C770.287,857.85 767.953,862.794 764.245,866.913C756.967,875.29 745.57,879.547 732.113,879.547C724.835,879.547 716.87,878.311 708.631,875.702C699.156,872.818 693.938,868.149 693.251,861.97C692.565,856.065 634.479,853.868 641.894,849.611C642.855,849.062 643.817,848.513 644.778,847.964C647.387,846.59 649.996,845.217 652.056,843.432C648.211,843.432 644.229,844.668 640.109,846.041C634.891,847.689 691.466,845.904 685.836,845.08C682.815,844.668 680.069,843.569 677.46,842.608C675.4,841.784 673.477,841.098 671.555,840.686C665.238,839.312 658.784,841.372 652.056,843.432C645.739,845.354 639.285,847.414 632.557,846.728C622.67,845.904 613.744,839.175 610.174,829.975C606.603,820.774 571.793,802.949 578.521,795.672C580.306,793.749 582.366,792.101 584.289,790.453C587.31,787.982 590.056,785.785 591.704,782.764C596.098,774.524 589.919,764.088 581.817,757.222C579.894,755.574 577.835,753.927 575.775,752.416C568.772,747.061 598.364,748.27 594.931,739.894C593.283,735.774 592.871,731.655 593.695,727.947C594.794,723.278 597.678,719.708 600.424,716.275L601.385,715.176C608.114,706.525 613.332,697.05 616.902,686.614L617.314,685.378C619.649,678.375 622.395,670.411 629.673,667.252C635.166,664.918 640.933,666.291 646.426,668.351C646.975,664.78 646.838,660.936 646.563,656.953C646.426,654.07 646.288,651.049 646.426,648.028C646.838,640.612 650.133,632.511 656.587,629.078C655.489,628.391 654.39,627.704 653.154,627.293C650.545,627.842 648.623,626.057 647.387,624.958L646.975,624.546C641.894,620.015 636.264,615.071 632.282,608.754L573.098,607.656C570.763,607.656 568.429,607.381 566.094,607.107C539.729,603.674 453.218,592.688 443.881,590.216C443.606,590.216 443.331,590.079 443.057,590.079L435.916,592.414C435.092,592.688 433.719,593.1 433.307,593.787C432.758,594.611 433.445,596.396 433.719,597.494C435.642,603.399 437.427,609.716 436.74,616.307C436.466,618.504 436.054,620.427 435.367,622.074C434.955,623.173 434.268,624.134 433.719,625.095C433.17,626.057 432.483,627.018 432.209,627.979C430.835,631.687 432.758,636.493 433.994,639.926C434.955,642.398 435.504,644.869 435.779,647.341C436.328,652.696 436.054,658.189 435.916,663.407C435.779,666.154 435.779,668.9 435.779,671.509C435.779,675.354 435.779,679.199 435.092,683.181C434.818,684.417 434.543,685.653 434.268,686.889C433.582,689.635 432.895,692.244 433.17,694.716C433.307,695.54 433.582,697.188 434.68,698.149C435.642,698.973 437.289,699.247 438.937,699.659L439.624,699.797C447.314,701.307 454.042,705.015 458.574,710.096C460.359,712.018 461.732,714.215 463.105,716.275L468.323,723.827C469.697,725.887 471.482,728.496 471.894,731.517C472.443,736.323 469.971,740.306 467.088,744.013C463.243,748.957 459.123,753.763 454.592,758.294C454.042,764.199 451.983,770.241 448.687,775.185C448.412,775.734 448,776.146 447.588,776.695C446.627,778.068 445.666,779.442 445.117,780.815C444.705,781.913 444.43,783.286 444.43,785.072C444.43,786.857 443.606,788.642 442.096,789.74C440.722,790.702 439.075,790.976 437.564,790.702C440.722,809.926 441.821,834.506 430.561,848.787C415.318,868.424 421.91,995.856 425.892,1045.29ZM386.07,938.868C386.482,978.554 387.031,1027.71 387.168,1031.83C387.58,1033.07 389.64,1037.88 391.837,1042.82C391.974,1043.09 392.112,1043.37 392.249,1043.64L419.85,1044.33L420.674,1044.33C420.674,1044.05 420.674,1043.78 420.537,1043.51C420.399,1041.72 420.262,1039.39 419.987,1036.64C419.301,1027.3 418.339,1012.61 417.516,995.306C414.907,941.203 413.396,862.382 426.304,846.041C436.877,832.584 434.955,807.455 431.522,788.779C431.247,787.543 431.11,786.307 430.835,785.209C430.561,783.836 430.286,782.463 430.012,781.089C428.776,775.597 427.54,771.202 426.716,768.456C426.167,766.671 425.892,765.71 425.892,765.572C425.755,765.298 425.755,765.16 425.755,764.886L425.755,762.689C424.519,723.827 421.498,663.133 418.614,654.619C417.104,654.207 415.044,653.383 412.023,652.147C409.826,651.186 406.667,649.95 403.509,648.989C402.411,648.577 401.175,648.302 400.076,648.028C398.703,647.753 397.467,647.478 396.368,647.341C395.27,647.341 394.309,647.341 393.759,647.753C393.622,647.753 393.485,647.89 393.347,647.89C392.661,648.44 392.524,649.95 392.936,651.873C393.073,652.559 393.21,653.246 393.485,654.07L393.485,654.482C393.759,656.267 395.682,670.685 398.154,690.184C399.939,704.466 402.136,721.63 404.196,738.521C405.294,748.133 406.393,757.608 407.491,766.671C408.59,776.283 409.414,785.072 410.1,792.624C410.238,793.86 410.375,794.959 410.375,796.057C411.199,805.807 411.611,812.947 411.199,815.831C409.414,831.485 395.407,859.086 393.897,861.421C393.622,861.695 393.347,862.107 392.936,862.794C390.601,865.815 385.108,872.818 385.383,882.568C385.52,887.374 385.658,911.267 386.07,938.868ZM381.813,808.965C382.225,829.014 382.637,849.474 382.637,869.934C384.696,865.128 387.305,861.558 388.953,859.636C389.228,859.224 389.503,858.949 389.64,858.674C391.013,856.752 404.47,829.837 406.118,815.419C406.667,810.75 405.02,791.938 402.273,767.907C401.587,765.71 401.037,763.375 400.488,761.178C398.978,753.763 398.84,746.348 398.84,739.07C395.407,710.096 391.288,678.787 388.267,656.541C385.658,671.784 382.225,719.571 380.851,743.464C380.851,765.023 381.401,787.269 381.813,808.965ZM357.919,960.702C358.057,969.628 358.057,978.691 358.881,987.754C359.018,989.951 359.292,992.148 360.391,993.659C361.215,994.894 362.588,995.581 363.549,995.306C364.511,995.032 365.197,993.796 365.746,992.697C370.278,984.596 371.788,974.983 372.75,965.646C378.517,914.014 377.419,860.597 376.457,808.965C376.045,787.269 375.633,765.023 375.633,743.052C375.771,739.894 379.753,674.942 383.323,654.756L378.792,656.816C377.83,657.228 376.869,657.365 375.908,657.228C373.986,672.882 367.806,729.595 370.278,757.883C372.2,778.48 370.965,793.86 369.729,803.198C368.905,808.828 367.394,814.32 366.021,819.539C364.511,824.894 363,830.387 362.313,836.154C360.666,849.199 359.43,862.794 358.743,877.899C357.37,905.5 357.645,933.65 357.919,960.702Z" style="fill-rule:nonzero;"/>
    </g>
    <path d="M373.979,868.025L373.979,646.42L527.009,646.42L527.009,707.915L427.228,707.915L427.228,806.529L527.009,806.529L527.009,868.025L373.979,868.025Z" style="fill:#fff;fill-rule:nonzero;stroke:#000;stroke-width:12.5px;stroke-linecap:butt;stroke-miterlimit:2;"/>
    <path d="M550.755,867.748L550.755,655.007L692.032,655.007L692.032,867.748L550.755,867.748ZM640.942,808.745L640.942,714.286L601.845,714.286L601.845,808.745L640.942,808.745Z" style="fill:#fff;fill-rule:nonzero;stroke:#000;stroke-width:12.5px;stroke-linecap:butt;stroke-miterlimit:2;"/>
    <path d="M869.288,777.167L869.288,868.025L726.572,868.025L726.572,646.42L779.821,646.42L779.821,806.529L816.039,806.529L816.039,777.167L869.288,777.167Z" style="fill:#fff;fill-rule:nonzero;stroke:#000;stroke-width:12.5px;stroke-linecap:butt;stroke-miterlimit:2;"/>
    <path d="M888.237,868.025L888.237,646.42L1041.51,646.42L1041.51,705.145L941.486,705.145L941.486,724.259L1019.68,724.259L1019.68,785.754L941.486,785.754L941.486,868.025L888.237,868.025Z" style="fill:#fff;fill-rule:nonzero;stroke:#000;stroke-width:12.5px;stroke-linecap:butt;stroke-miterlimit:2;"/>
</svg>
